<svg width="20" height="20" xmlns="http://www.w3.org/2000/svg" viewBox="0 0 109.86 126.07"><title>logo_ccs</title><g id="Layer_5" data-name="Layer 5"><polygon points="22.38 89.14 27.83 86 31.8 92.7 30.17 93.64 30.16 101.45 30.15 109.25 36.91 113.17 43.66 117.08 50.43 113.18 57.19 109.28 57.2 101.47 57.21 93.67 50.45 89.76 43.69 85.85 42.03 86.81 38.06 80.11 43.7 76.86 54.35 83.02 65 89.18 64.99 101.48 64.98 113.79 54.32 119.93 43.66 126.07 33.01 119.91 22.36 113.75 22.37 101.44 22.38 89.14" style="fill:#fff;fill-rule:evenodd"/><path d="M9.09,51.27l10.66-6.14L30.41,39l5.74,3.32-4.1,6.63L30.4,48l-6.76,3.89-6.76,3.9V71.39l6.76,3.91,6.76,3.91,1.44-.83,4,6.7-5.42,3.13L19.72,82,9.07,75.88V51.27Zm37.28-3.05,5.34,3.1v24.6L46,79.19l-4-6.7,1.85-1.07V55.81l-1.64-1Z" transform="translate(-9.07 -0.97)" style="fill:#fff;fill-rule:evenodd"/><path d="M31.52,13.25,42.18,7.11,52.84,1,63.49,7.13l10.65,6.16v6.2H66.34V17.78l-6.76-3.91L52.83,10l-6.76,3.9L39.3,17.75V33.36l1.75,1L37,41l-5.46-3.15,0-12.31V13.25Zm42.6,18H66.33v2.1l-6.76,3.9L52.8,41.18l-1.54-.89-4.09,6.63,5.62,3.26L63.45,44,74.12,37.9Z" transform="translate(-9.07 -0.97)" style="fill:#fff;fill-rule:evenodd"/><polygon points="67.24 12.28 77.91 6.14 88.57 0 99.22 6.16 109.86 12.32 109.85 24.63 109.84 36.93 99.18 43.07 88.52 49.21 77.87 43.05 67.22 36.89 67.23 30.32 75.02 30.32 75.01 32.4 81.77 36.31 88.53 40.22 95.29 36.32 102.06 32.43 102.06 24.62 102.07 16.81 95.31 12.9 88.56 8.99 81.79 12.89 75.03 16.79 75.03 18.52 67.24 18.52 67.24 12.28" style="fill:#fff;fill-rule:evenodd"/><path d="M53.81,51.38l10.66-6.14L75.13,39.1l10.65,6.16,10.65,6.16V63.73l0,12.3L85.74,82.17,75.08,88.31,64.43,82.15,53.78,76l0-12.3V51.38Zm7.78,4.51V71.5l6.75,3.91,6.76,3.91,6.76-3.9,6.77-3.89V55.91L81.88,52l-6.76-3.91L68.36,52Z" transform="translate(-9.07 -0.97)" style="fill:#faa21b;fill-rule:evenodd"/><rect x="56.11" y="21.36" width="20.23" height="6.13" style="fill:#faa21b"/><rect x="31.4" y="41.77" width="20.23" height="6.13" transform="translate(-27.51 55.68) rotate(-58.34)" style="fill:#faa21b"/><rect x="38.36" y="72.91" width="6.13" height="20.23" transform="translate(-45.57 31.7) rotate(-30.61)" style="fill:#faa21b"/></g></svg>